<svg xmlns="http://www.w3.org/2000/svg" viewBox="0 0 64 64"><g id="Layer_44" data-name="Layer 44"><path d="M34.13,43.22l.17-2.09c0-.06.23-.2.3-.09l1.32,1.63c.89,1.1,2.13.45,3-.22,1.58-1,.24-2.8-.26-4-.05-.05.09-.29.21-.23l2,.77c1.32.51,2.07-.66,2.54-1.69.89-1.61-1.18-2.55-2.19-3.32-.08-.07,0-.28.08-.3,2.28-.35,3.76-.1,3.44-3,0-1.83-2.29-1.63-3.54-1.8-.06,0-.2-.23-.09-.3l1.66-1.29c1.11-.87.5-2.11-.15-3-.93-1.59-2.8-.29-4,.18-.09,0-.26-.11-.22-.22.45-1.18,1.72-3.08.11-4-2.43-1.67-2.92-.25-4.31,1.58,0,.07-.29.06-.29-.07l-.26-2.09c-.18-1.4-1.57-1.5-2.71-1.42-1.83,0-1.67,2.26-1.87,3.51-.18.23-.65.2-.93.35,0,0-.08,0-.11,0L26.66,20.5c-.93-1.06-2.14-.37-3,.33a1.63,1.63,0,0,0-.53,2.08l.95,1.88c.05.09-.09.26-.2.23-1.21-.38-3.19-1.53-4,.13-1.52,2.52-.07,2.92,1.84,4.2.06,0,.07.29-.06.3L19.58,30c-1.39.26-1.41,1.65-1.26,2.77.09,1.84,2.35,1.54,3.61,1.67a.2.2,0,0,1,.1.29c-1.75,1.5-3.14,2.07-1.33,4.39,1,1.56,2.8.18,4-.34,0,0,.28.09.23.21l-.73,2c-.49,1.33.7,2.06,1.75,2.5,1.62.87,2.52-1.23,3.27-2.25,0-.06.29-.07.3.07l.34,2.08c.24,1.38,1.63,1.44,2.75,1.31A1.64,1.64,0,0,0,34.13,43.22Zm-2.7,0c-.21.14-.42-2.13-.47-2.18a1.7,1.7,0,0,0-3-.67l-1.19,1.73c-.07.21-1-.45-1.12-.46s.69-2,.67-2.12A1.7,1.7,0,0,0,24,37.47l-1.9.92a.11.11,0,0,1-.15,0c-.19-.35-.76-1-.57-1.08L23,35.92A1.69,1.69,0,0,0,22,33l-2.1-.14c-.21,0-.13-1.11-.17-1.2a.12.12,0,0,1,.1-.13c1.21-.32,3.08-.1,3.37-1.73s-1.52-2.11-2.45-2.84c-.19-.07.26-.68.44-1.13a.11.11,0,0,1,.15-.06l2,.69a1.7,1.7,0,0,0,2-2.33c0-.09-1.16-2-.92-2s1-.78,1.07-.59c1.26,1.34,1.73,2.74,3.86,1.81,1.49-.36,1.2-2.29,1.44-3.44,0-.22,1.12-.07,1.22-.11s.32,2.14.38,2.19a1.69,1.69,0,0,0,3,.79l1.26-1.68c.08-.2,1,.49,1.11.5s-.77,2-.75,2.1a1.69,1.69,0,0,0,2.2,2.16L41.17,25c.15-.13.48.66.71,1a.12.12,0,0,1,0,.16c-.92.85-2.7,1.51-2.2,3.1.29,1.44,2.42,1.21,3.48,1.39.21,0,.09.72.14,1.21a.12.12,0,0,1-.11.12l-2.08.31a1.69,1.69,0,0,0-.73,3l1.7,1.22c.19.07-.31.73-.48,1.12a.13.13,0,0,1-.15.05l-2-.77a1.7,1.7,0,0,0-2.12,2.25L38.22,41a.11.11,0,0,1,0,.15c-.37.2-1,.73-1.08.55L35.76,40.1a1.69,1.69,0,0,0-2.95.9l-.18,2.1C32.65,43.3,31.92,43.2,31.43,43.25Z"/><path d="M38.18,31.49a6.67,6.67,0,0,0-6.67-6.66c-8.83.31-8.82,13,0,13.33A6.67,6.67,0,0,0,38.18,31.49Zm-6.67,5.17c-6.83-.21-6.83-10.12,0-10.33C38.34,26.54,38.34,36.45,31.51,36.66Z"/><path d="M19.21,23.45l-.47-1c.89.4,2.1.91,2.7-.2,1-1.56.44-2.14-.94-3,1.64-.16,2.42-.41,2.23-2.26,0-1.27-1.33-1.37-2.31-1.42,1.35-.95,1.91-1.55.84-3.07-.65-1.09-1.84-.53-2.72-.1.42-.88,1-2.08-.15-2.71-1.53-1-2.13-.47-3,.89C15.22,8.9,15,8.12,13.13,8.26c-1.36,0-1.39,1.49-1.49,2.49a2.4,2.4,0,0,0-.38.12c-.63-.76-1.53-2-2.63-1.22-1.62.91-1.37,1.7-.55,3.12-.91-.36-2.14-.83-2.7.32-1,1.59-.34,2.15,1.07,3-1.63.23-2.4.51-2.15,2.34.07,1.27,1.39,1.32,2.36,1.34-1.3,1-1.84,1.62-.71,3.09.69,1.08,1.86.47,2.72,0-.38.9-.87,2.11.26,2.7,1.57,1,2.14.39,3-1,.19,1.63.45,2.41,2.29,2.19,1.27,0,1.35-1.36,1.38-2.33.56.77,1.4,1.83,2.45,1.16C18.86,25.17,19.67,24.4,19.21,23.45Zm-1.72-2.16c-.81.78,0,1.87.3,2.66l-.4.25c-.58-.69-1.19-1.82-2.29-1.43s-1,1.6-1.06,2.46h-.46c-.17-.88-.14-2.17-1.3-2.37s-1.63.91-2.13,1.61l-.41-.21c.3-.84.95-2,0-2.7s-1.87,0-2.65.34l-.25-.39c.67-.58,1.79-1.23,1.38-2.31s-1.61-.95-2.48-1l0-.46c.88-.18,2.16-.18,2.34-1.34s-.93-1.62-1.65-2.1l.2-.42c.85.28,2,.92,2.7,0S9.36,12,9,11.23L9.35,11l.85,1a1.59,1.59,0,0,0,1.93.23c1.08-.23,1-1.55,1.14-2.41h.47c.12.89,0,2.18,1.19,2.42s1.67-.83,2.2-1.52l.4.23c-.33.83-1,1.92-.17,2.69s1.87.11,2.68-.23l.23.39c-.7.57-1.85,1.16-1.47,2.28s1.58,1,2.44,1.1v.46c-.88.14-2.17.1-2.4,1.23s.86,1.66,1.56,2.18l-.22.41C19.36,21.09,18.24,20.4,17.49,21.29Z"/><path d="M13.5,12.73c-6.3.2-6.3,9.35,0,9.54C19.81,22.07,19.81,12.93,13.5,12.73Zm0,8a3.27,3.27,0,0,1,0-6.54A3.27,3.27,0,0,1,13.5,20.77Z"/><path d="M49.53,49.64l-1.11-.11c1.35-1,1.91-1.55.83-3.07-.64-1.09-1.83-.53-2.71-.1.42-.88,1-2.08-.15-2.71-1.54-1-2.13-.47-3,.89-.12-1.64-.36-2.42-2.21-2.28-1.36,0-1.39,1.49-1.49,2.49a2.4,2.4,0,0,0-.38.12c-.63-.76-1.53-2-2.63-1.22-1.62.91-1.37,1.7-.55,3.12-.91-.36-2.14-.83-2.7.32-1,1.59-.35,2.15,1.07,3-1.63.23-2.4.5-2.15,2.34.07,1.27,1.39,1.32,2.36,1.34-1.3,1-1.84,1.62-.7,3.1.68,1.06,1.85.46,2.71,0-.38.88-.87,2.14.26,2.7,1.57,1,2.15.39,3-1,.19,1.63.45,2.41,2.29,2.19,1.28,0,1.35-1.36,1.38-2.33,1,1.32,1.59,1.87,3.09.76,1.08-.67.49-1.85,0-2.71.89.4,2.09.91,2.71-.2,1-1.56.43-2.14-1-3,1-.1,2.28-.25,2.25-1.52C50.82,50.8,50.6,49.75,49.53,49.64ZM48,51.77a1.38,1.38,0,0,0-1.12,1c-.32,1.09.86,1.66,1.56,2.18l-.22.41c-.83-.32-1.95-1-2.7-.11s-.06,1.87.3,2.66l-.4.25c-.58-.69-1.19-1.82-2.29-1.43s-1,1.6-1.06,2.46h-.46c-.17-.88-.14-2.17-1.3-2.37s-1.63.91-2.13,1.61l-.41-.21c.29-.84.95-2,0-2.7s-1.86,0-2.65.34l-.25-.39c.67-.58,1.79-1.23,1.38-2.31s-1.61-1-2.48-1l0-.46c.88-.18,2.16-.18,2.34-1.34s-.93-1.62-1.65-2.1l.21-.42c.84.28,2,.92,2.69,0s0-1.87-.39-2.65l.38-.26.85,1a1.61,1.61,0,0,0,1.93.23c1.08-.23,1-1.56,1.14-2.41h.47c.12.89,0,2.18,1.19,2.42s1.67-.83,2.2-1.52l.4.23c-.31.77-1,1.93-.24,2.61.78.94,1.9.21,2.75-.15l.23.39c-.7.57-1.84,1.15-1.47,2.28s1.58,1,2.44,1.1v.46Z"/><path d="M41.5,46.73c-6.3.2-6.3,9.34,0,9.54C47.81,56.07,47.81,46.93,41.5,46.73Zm0,8a3.27,3.27,0,0,1,0-6.54A3.27,3.27,0,0,1,41.5,54.77Z"/><path d="M61.75,23.69c.11-1.86-.69-2.07-2.33-2.16,1.35-1,1.91-1.55.83-3.07-.64-1.09-1.83-.53-2.71-.1.42-.88,1-2.08-.15-2.71-1.54-1-2.13-.47-3,.89-.12-1.64-.36-2.42-2.21-2.28-1.36,0-1.39,1.49-1.49,2.49a2.4,2.4,0,0,0-.38.12c-.63-.76-1.53-2-2.63-1.22-1.62.91-1.37,1.7-.55,3.12-.91-.36-2.14-.83-2.7.32-1,1.59-.35,2.15,1.07,3-1.63.22-2.4.51-2.15,2.34.07,1.27,1.39,1.32,2.36,1.34-1.3,1-1.84,1.62-.7,3.1.69,1.06,1.85.46,2.71,0-.38.88-.87,2.14.26,2.7,1.57,1,2.15.39,3-1,.19,1.63.45,2.41,2.29,2.19,1.28,0,1.35-1.36,1.38-2.33,1,1.32,1.59,1.87,3.09.76,1.08-.67.49-1.85,0-2.71.89.4,2.09.91,2.71-.2,1-1.56.43-2.14-1-3C60.47,25.11,61.78,25,61.75,23.69ZM59,23.77a1.38,1.38,0,0,0-1.12,1c-.32,1.09.86,1.66,1.56,2.18l-.22.41c-.83-.31-1.95-1-2.7-.11s-.06,1.87.3,2.66l-.4.25c-.58-.69-1.18-1.82-2.29-1.43s-1,1.6-1.06,2.46h-.46c-.17-.88-.14-2.17-1.3-2.37s-1.63.91-2.13,1.61l-.41-.21c.29-.84.95-2,0-2.7s-1.86,0-2.65.34l-.25-.39c.67-.58,1.79-1.23,1.38-2.31s-1.61-.95-2.48-1l0-.46c.88-.18,2.16-.18,2.34-1.34s-.93-1.62-1.65-2.1l.21-.42c.84.28,2,.92,2.69,0s0-1.87-.39-2.65l.38-.26.85,1a1.61,1.61,0,0,0,1.93.23c1.08-.23,1-1.56,1.14-2.41h.47c.12.89,0,2.18,1.19,2.42s1.67-.83,2.2-1.52l.4.23c-.31.77-1,1.93-.24,2.61.78.94,1.9.21,2.75-.15l.23.39c-.7.57-1.84,1.15-1.47,2.28s1.58,1,2.44,1.1v.46Z"/><path d="M52.5,18.73c-6.3.2-6.3,9.34,0,9.54C58.81,28.07,58.81,18.93,52.5,18.73Zm0,8a3.27,3.27,0,0,1,0-6.54A3.27,3.27,0,0,1,52.5,26.77Z"/></g></svg>